<svg xmlns="http://www.w3.org/2000/svg" viewBox="0 0 827.95 137.51"><defs><style>.cls-1,.cls-2{fill:none;stroke-width:3px;}.cls-1{stroke:#0369b2;}.cls-2{stroke:#bfbebe;stroke-miterlimit:10;}.cls-3{fill:#0068b3;}.cls-4{fill:#bfbfbf;}</style></defs><title>logo_1</title><g id="Layer_2" data-name="Layer 2"><g id="Layer_2-2" data-name="Layer 2"><path class="cls-1" d="M42.75,92.46c8.09-8.08,2.78-14.9,2.78-14.9L30.88,55.07,16.23,77.56S10.92,84.38,19,92.46c0,0-11.12-1-12.64,8.84s-4.29,29.31-4.29,29.31L8.4,124.8s3.7-2.86,6.56-4.8c1.41-1,10.74-6.7,15.92-13.64C36.06,113.3,45.39,119.05,46.8,120c2.86,1.94,6.56,4.8,6.56,4.8l6.32,5.81s-2.78-19.45-4.29-29.31S42.75,92.46,42.75,92.46Z"/><path class="cls-1" d="M108.8,92.46c8.08-8.08,2.78-14.9,2.78-14.9L96.93,55.07,82.27,77.56s-5.3,6.82,2.78,14.9c0,0-11.11-1-12.63,8.84s-4.29,29.31-4.29,29.31l6.31-5.81s3.71-2.86,6.57-4.8c1.4-1,10.74-6.7,15.92-13.64,5.17,6.94,14.51,12.69,15.91,13.64,2.86,1.94,6.57,4.8,6.57,4.8l6.32,5.81s-2.78-19.45-4.3-29.31S108.8,92.46,108.8,92.46Z"/><path class="cls-1" d="M187.48,101.3c-1.52-9.85-12.64-8.84-12.64-8.84,8.09-8.08,2.78-14.9,2.78-14.9L163,55.07,148.32,77.56s-5.31,6.82,2.78,14.9c0,0-11.12-1-12.63,8.84s-4.3,29.31-4.3,29.31l6.32-5.81s3.7-2.86,6.57-4.8c1.4-1,10.73-6.7,15.91-13.64,5.18,6.94,14.51,12.69,15.92,13.64,2.86,1.94,6.57,4.8,6.57,4.8l6.31,5.81S189,111.16,187.48,101.3Z"/><path class="cls-2" d="M72.07,34.84c.94-1.67,2.82-5.85-.35-7.67,0,0-6.3-4.09-8-8.21l-.5-1-.49,1c-1.7,4.12-8,8.21-8,8.21-3.17,1.82-1.29,6-.36,7.67-11.69.72-15.21,4.44-15.21,8.93s3.36,8,14.42,8.87c-8.21,4.88-1.39,14.16,0,16.2a73.74,73.74,0,0,1,3.92,8l5.74,15.28L69,76.88a73.74,73.74,0,0,1,3.92-8c1.36-2,8.18-11.32,0-16.2,11.06-.83,14.42-4.49,14.42-8.87S83.77,35.56,72.07,34.84Z"/><path class="cls-2" d="M154.69,43.68c0-4.49-3.52-8.21-15.21-8.92.93-1.68,2.81-5.86-.36-7.68,0,0-6.3-4.09-8-8.21l-.49-1-.5,1c-1.7,4.12-8,8.21-8,8.21-3.16,1.82-1.28,6-.35,7.68-11.7.71-15.22,4.43-15.22,8.92s3.36,8,14.42,8.87c-8.2,4.88-1.38,14.17,0,16.2a73.74,73.74,0,0,1,3.92,8l5.75,15.28,5.74-15.28a73.74,73.74,0,0,1,3.92-8c1.37-2,8.19-11.32,0-16.2C151.33,51.72,154.69,48.06,154.69,43.68Z"/><path class="cls-1" d="M105.89,9.52a8.44,8.44,0,0,0-9-8,8.44,8.44,0,0,0-9,8c-8.28-1.2-13.46,1.56-13.46,4.42s5.88,5.81,10.93,5.5a4,4,0,0,0,.66,5.07L96.93,36.24l10.83-11.73a4,4,0,0,0,.66-5.07c5,.31,10.93-2.64,10.93-5.5S114.17,8.32,105.89,9.52Z"/><path class="cls-3" d="M268.38,30.77,255.59,66.05h-9.83l-7.94-21.9-8.2,21.9h-9.84L207.06,30.77h9.64L225,54.64l8.66-23.87h8.66l8.39,23.87,8.59-23.87Z"/><path class="cls-3" d="M303.93,51.3H277.24a8.3,8.3,0,0,0,3.41,5.18,11.27,11.27,0,0,0,6.69,1.9,13.46,13.46,0,0,0,4.88-.82,11.87,11.87,0,0,0,4-2.59l5.45,5.9q-5,5.72-14.57,5.71a23,23,0,0,1-10.55-2.33,17,17,0,0,1-7.09-6.46,17.8,17.8,0,0,1-2.49-9.38,18,18,0,0,1,2.46-9.34,17.29,17.29,0,0,1,6.75-6.5,20.91,20.91,0,0,1,19-.1,16.24,16.24,0,0,1,6.59,6.4,19,19,0,0,1,2.4,9.67C304.13,48.67,304.06,49.59,303.93,51.3ZM280,40a8.4,8.4,0,0,0-2.88,5.38h17.38A8.51,8.51,0,0,0,291.6,40a8.64,8.64,0,0,0-5.77-2A8.84,8.84,0,0,0,280,40Z"/><path class="cls-3" d="M311.6,65.5a22.69,22.69,0,0,1-6.69-2.72l3.41-7.35A21.31,21.31,0,0,0,314,57.89a24.09,24.09,0,0,0,6.56,1q6.5,0,6.49-3.21a2.28,2.28,0,0,0-1.77-2.17,26.29,26.29,0,0,0-5.44-1.11,52.54,52.54,0,0,1-7.15-1.51,11.17,11.17,0,0,1-4.89-3,8.56,8.56,0,0,1-2.06-6.16,9.67,9.67,0,0,1,1.93-5.94,12.41,12.41,0,0,1,5.64-4,24.14,24.14,0,0,1,8.76-1.45,34.75,34.75,0,0,1,7.44.82,20.86,20.86,0,0,1,6.13,2.27l-3.41,7.28A20.33,20.33,0,0,0,322.1,38a10.35,10.35,0,0,0-4.92.92,2.7,2.7,0,0,0-1.64,2.36,2.35,2.35,0,0,0,1.77,2.3A31.58,31.58,0,0,0,323,44.81,59,59,0,0,1,330,46.35a10.56,10.56,0,0,1,4.79,3,8.43,8.43,0,0,1,2,6,9.31,9.31,0,0,1-2,5.84,12.54,12.54,0,0,1-5.74,4,25.61,25.61,0,0,1-9,1.41A34.39,34.39,0,0,1,311.6,65.5Z"/><path class="cls-3" d="M363.28,64.35a10.51,10.51,0,0,1-3.7,1.67,18.86,18.86,0,0,1-4.62.56q-6.3,0-9.74-3.21c-2.3-2.15-3.45-5.29-3.45-9.45V39.43h-5.44V31.56h5.44V23H352v8.6h8.79v7.87H352V53.79a4.83,4.83,0,0,0,1.15,3.44,4.27,4.27,0,0,0,3.25,1.22,6.6,6.6,0,0,0,4.13-1.31Z"/><path class="cls-3" d="M422.15,34.15q3.9,3.9,3.9,11.7v20.2H415.82V47.43q0-4.2-1.74-6.27a6.13,6.13,0,0,0-4.95-2.06,7.31,7.31,0,0,0-5.71,2.33q-2.1,2.32-2.1,6.92v17.7H391.09V47.43q0-8.32-6.69-8.33a7.23,7.23,0,0,0-5.64,2.33q-2.1,2.32-2.1,6.92v17.7H366.43V30.77h9.77v4.07A12.83,12.83,0,0,1,381,31.43a16.16,16.16,0,0,1,6.26-1.19A15.2,15.2,0,0,1,394,31.72,12,12,0,0,1,398.9,36a14.52,14.52,0,0,1,5.47-4.27,17.4,17.4,0,0,1,7.25-1.51Q418.25,30.24,422.15,34.15Z"/><path class="cls-3" d="M433.13,24.21a5.32,5.32,0,0,1-1.77-4.07,5.31,5.31,0,0,1,1.77-4.06,6.5,6.5,0,0,1,4.59-1.64A6.64,6.64,0,0,1,442.31,16,5,5,0,0,1,444.09,20a5.56,5.56,0,0,1-1.78,4.23,6.43,6.43,0,0,1-4.59,1.67A6.5,6.5,0,0,1,433.13,24.21Zm-.52,6.56h10.23V66.05H432.61Z"/><path class="cls-3" d="M481.76,34.18c2.69,2.62,4,6.52,4,11.67v20.2H475.57V47.43c0-2.8-.62-4.89-1.84-6.27a6.76,6.76,0,0,0-5.31-2.06,8.17,8.17,0,0,0-6.17,2.39Q460,43.89,460,48.61V66.05H449.73V30.77h9.77V34.9a13.62,13.62,0,0,1,5.05-3.44,17.57,17.57,0,0,1,6.62-1.22A14.54,14.54,0,0,1,481.76,34.18Z"/><path class="cls-3" d="M495.7,65.5A22.46,22.46,0,0,1,489,62.78l3.41-7.35a21.31,21.31,0,0,0,5.71,2.46,24,24,0,0,0,6.56,1q6.49,0,6.49-3.21a2.28,2.28,0,0,0-1.77-2.17A26.44,26.44,0,0,0,504,52.35a52.54,52.54,0,0,1-7.15-1.51,11.17,11.17,0,0,1-4.89-3,8.56,8.56,0,0,1-2.07-6.16,9.68,9.68,0,0,1,1.94-5.94,12.41,12.41,0,0,1,5.64-4,24.12,24.12,0,0,1,8.75-1.45,34.77,34.77,0,0,1,7.45.82,21,21,0,0,1,6.13,2.27l-3.41,7.28A20.34,20.34,0,0,0,506.19,38a10.33,10.33,0,0,0-4.91.92,2.69,2.69,0,0,0-1.64,2.36,2.35,2.35,0,0,0,1.77,2.3,31.58,31.58,0,0,0,5.64,1.25,59.86,59.86,0,0,1,7.08,1.54,10.61,10.61,0,0,1,4.79,3,8.48,8.48,0,0,1,2,6,9.26,9.26,0,0,1-2,5.84,12.51,12.51,0,0,1-5.73,4,25.61,25.61,0,0,1-9,1.41A34.33,34.33,0,0,1,495.7,65.5Z"/><path class="cls-3" d="M547.38,64.35a10.59,10.59,0,0,1-3.7,1.67,18.88,18.88,0,0,1-4.63.56q-6.3,0-9.74-3.21c-2.29-2.15-3.44-5.29-3.44-9.45V39.43h-5.44V31.56h5.44V23H536.1v8.6h8.79v7.87H536.1V53.79a4.78,4.78,0,0,0,1.15,3.44,4.24,4.24,0,0,0,3.24,1.22,6.63,6.63,0,0,0,4.14-1.31Z"/><path class="cls-3" d="M583.78,51.3H557.09a8.34,8.34,0,0,0,3.41,5.18,11.27,11.27,0,0,0,6.69,1.9,13.46,13.46,0,0,0,4.88-.82A11.77,11.77,0,0,0,576,55l5.45,5.9q-5,5.72-14.56,5.71a23.06,23.06,0,0,1-10.56-2.33,17,17,0,0,1-7.09-6.46,17.8,17.8,0,0,1-2.49-9.38,18,18,0,0,1,2.46-9.34,17.25,17.25,0,0,1,6.76-6.5,20.89,20.89,0,0,1,19-.1,16.24,16.24,0,0,1,6.59,6.4,19,19,0,0,1,2.4,9.67C584,48.67,583.91,49.59,583.78,51.3ZM559.84,40A8.4,8.4,0,0,0,557,45.33h17.38A8.47,8.47,0,0,0,571.45,40a8.64,8.64,0,0,0-5.77-2A8.84,8.84,0,0,0,559.84,40Z"/><path class="cls-3" d="M602.9,31.56a18.28,18.28,0,0,1,7.18-1.32v9.45c-1.14-.09-1.9-.13-2.29-.13A9.38,9.38,0,0,0,600.9,42q-2.49,2.46-2.49,7.38V66.05H588.18V30.77H598v4.66A11.26,11.26,0,0,1,602.9,31.56Z"/><path class="cls-3" d="M218.64,122.46a17.79,17.79,0,0,1,0-31.68,21.7,21.7,0,0,1,10.13-2.33,19.66,19.66,0,0,1,9.74,2.33,13.79,13.79,0,0,1,6.07,6.66l-7.94,4.26a8.68,8.68,0,0,0-7.94-4.86,9,9,0,0,0-6.62,2.63,11.07,11.07,0,0,0,0,14.3,9,9,0,0,0,6.62,2.62,8.59,8.59,0,0,0,7.94-4.85l7.94,4.33a14.09,14.09,0,0,1-6.07,6.55,19.35,19.35,0,0,1-9.74,2.36A21.69,21.69,0,0,1,218.64,122.46Z"/><path class="cls-3" d="M279.63,92.38q4,3.95,4,11.68v20.2H273.43V105.63q0-4.18-1.83-6.26a6.75,6.75,0,0,0-5.32-2.07,8.12,8.12,0,0,0-6.16,2.4c-1.53,1.59-2.3,4-2.3,7.11v17.45H247.59V75.6h10.23V92.65a13.62,13.62,0,0,1,4.92-3.12,17.85,17.85,0,0,1,6.3-1.08A14.53,14.53,0,0,1,279.63,92.38Z"/><path class="cls-3" d="M317.11,92.35q4.39,3.9,4.4,11.77v20.14h-9.58v-4.39q-2.88,4.91-10.75,4.91a16.69,16.69,0,0,1-7.06-1.37,10.5,10.5,0,0,1-4.55-3.81,9.87,9.87,0,0,1-1.58-5.51,9.21,9.21,0,0,1,3.71-7.74q3.71-2.8,11.44-2.81h8.13a6.49,6.49,0,0,0-2-5.15c-1.35-1.21-3.39-1.81-6.1-1.81a17.79,17.79,0,0,0-5.54.89A14.71,14.71,0,0,0,293,99.86l-3.68-7.15a22.26,22.26,0,0,1,6.92-3.14,30.77,30.77,0,0,1,8.3-1.12Q312.71,88.45,317.11,92.35Zm-8.72,24.33a6.59,6.59,0,0,0,2.88-3.57V109.5h-7q-6.3,0-6.3,4.13a3.69,3.69,0,0,0,1.54,3.12,6.92,6.92,0,0,0,4.23,1.15A8.93,8.93,0,0,0,308.39,116.68Z"/><path class="cls-3" d="M357.94,90.71a16.26,16.26,0,0,1,6.33,6.36,21,21,0,0,1,0,19.09,16.26,16.26,0,0,1-6.33,6.36,18,18,0,0,1-8.95,2.26q-6.76,0-10.63-4.26V137H328.13V89h9.77V93q3.81-4.59,11.09-4.59A18,18,0,0,1,357.94,90.71Zm-4.26,23a11.3,11.3,0,0,0,0-14.23,9.17,9.17,0,0,0-12.92,0,11.27,11.27,0,0,0,0,14.23,9.17,9.17,0,0,0,12.92,0Z"/><path class="cls-3" d="M405.13,109.5h-26.7a8.29,8.29,0,0,0,3.41,5.18,11.32,11.32,0,0,0,6.69,1.91,13.69,13.69,0,0,0,4.89-.82,12,12,0,0,0,4-2.59l5.44,5.9q-5,5.7-14.56,5.7a23.06,23.06,0,0,1-10.56-2.32,17.14,17.14,0,0,1-7.08-6.46,17.83,17.83,0,0,1-2.49-9.38,18,18,0,0,1,2.46-9.35,17.2,17.2,0,0,1,6.75-6.49A19.86,19.86,0,0,1,387,88.45a19.66,19.66,0,0,1,9.38,2.23,16.34,16.34,0,0,1,6.59,6.39,19.17,19.17,0,0,1,2.39,9.68C405.32,106.88,405.26,107.8,405.13,109.5ZM381.19,98.16a8.34,8.34,0,0,0-2.89,5.38h17.38a8.45,8.45,0,0,0-2.88-5.35,8.67,8.67,0,0,0-5.78-2A8.76,8.76,0,0,0,381.19,98.16Z"/><path class="cls-3" d="M409.52,75.6h10.23v48.66H409.52Z"/><path class="cls-4" d="M469.4,92.35q4.39,3.9,4.39,11.77v20.14h-9.57v-4.39q-2.89,4.91-10.76,4.91a16.67,16.67,0,0,1-7-1.37,10.53,10.53,0,0,1-4.56-3.81,9.87,9.87,0,0,1-1.57-5.51,9.2,9.2,0,0,1,3.7-7.74q3.7-2.8,11.45-2.81h8.13a6.52,6.52,0,0,0-2-5.15q-2-1.81-6.1-1.81a17.79,17.79,0,0,0-5.54.89,14.77,14.77,0,0,0-4.63,2.39l-3.67-7.15a22.26,22.26,0,0,1,6.92-3.14,30.72,30.72,0,0,1,8.3-1.12Q465,88.45,469.4,92.35Zm-8.72,24.33a6.63,6.63,0,0,0,2.88-3.57V109.5h-7q-6.3,0-6.3,4.13a3.66,3.66,0,0,0,1.54,3.12A6.92,6.92,0,0,0,456,117.9,8.93,8.93,0,0,0,460.68,116.68Z"/><path class="cls-4" d="M503.18,122.55a10.47,10.47,0,0,1-3.71,1.68,18.86,18.86,0,0,1-4.62.55q-6.3,0-9.74-3.21t-3.45-9.44V97.63h-5.44V89.76h5.44V81.17h10.23v8.59h8.79v7.87h-8.79V112a4.85,4.85,0,0,0,1.15,3.45,4.26,4.26,0,0,0,3.25,1.21,6.6,6.6,0,0,0,4.13-1.31Z"/><path class="cls-4" d="M554.3,92.38q4,3.95,4,11.68v20.2H548.1V105.63q0-4.18-1.84-6.26A6.71,6.71,0,0,0,541,97.3a8.12,8.12,0,0,0-6.16,2.4c-1.53,1.59-2.3,4-2.3,7.11v17.45H522.26V75.6h10.23V92.65a13.62,13.62,0,0,1,4.92-3.12,17.81,17.81,0,0,1,6.3-1.08A14.53,14.53,0,0,1,554.3,92.38Z"/><path class="cls-4" d="M565.48,82.42a5.56,5.56,0,0,1,0-8.14,6.5,6.5,0,0,1,4.59-1.64,6.65,6.65,0,0,1,4.59,1.58,5,5,0,0,1,1.77,3.93,5.56,5.56,0,0,1-1.77,4.23,6.39,6.39,0,0,1-4.59,1.68A6.5,6.5,0,0,1,565.48,82.42ZM565,89h10.23v35.29H565Z"/><path class="cls-4" d="M618.47,89v29.39q0,9.7-5.05,14.43t-14.75,4.72a37,37,0,0,1-9.71-1.25,21.12,21.12,0,0,1-7.61-3.61l4.07-7.34a16.66,16.66,0,0,0,5.64,2.92,22.43,22.43,0,0,0,6.82,1.08q5.31,0,7.84-2.39c1.68-1.6,2.52-4,2.52-7.25v-1.51q-4,4.4-11.15,4.39a18.7,18.7,0,0,1-8.88-2.13,16.28,16.28,0,0,1-6.4-6,18,18,0,0,1,0-17.84,16.28,16.28,0,0,1,6.4-6,18.7,18.7,0,0,1,8.88-2.13q7.68,0,11.68,5V89Zm-12.69,22.8a8.87,8.87,0,0,0,0-12.53,9.4,9.4,0,0,0-6.65-2.4,9.5,9.5,0,0,0-6.69,2.4,8.78,8.78,0,0,0,0,12.53,9.54,9.54,0,0,0,6.69,2.39A9.44,9.44,0,0,0,605.78,111.77Z"/><path class="cls-4" d="M657.4,92.38q4,3.95,4,11.68v20.2H651.2V105.63q0-4.18-1.84-6.26a6.71,6.71,0,0,0-5.31-2.07,8.12,8.12,0,0,0-6.16,2.4c-1.54,1.59-2.3,4-2.3,7.11v17.45H625.36V75.6h10.23V92.65a13.62,13.62,0,0,1,4.92-3.12,17.81,17.81,0,0,1,6.3-1.08A14.53,14.53,0,0,1,657.4,92.38Z"/><path class="cls-4" d="M713.8,90.71a16.26,16.26,0,0,1,6.33,6.36,21,21,0,0,1,0,19.09,16.26,16.26,0,0,1-6.33,6.36,18,18,0,0,1-8.95,2.26q-6.76,0-10.63-4.26V137H684V89h9.77V93q3.81-4.59,11.09-4.59A18,18,0,0,1,713.8,90.71Zm-4.26,23a11.3,11.3,0,0,0,0-14.23,9.17,9.17,0,0,0-12.92,0,11.27,11.27,0,0,0,0,14.23,9.17,9.17,0,0,0,12.92,0Z"/><path class="cls-4" d="M752.86,92.35q4.39,3.9,4.39,11.77v20.14h-9.57v-4.39q-2.89,4.91-10.76,4.91a16.67,16.67,0,0,1-7-1.37,10.53,10.53,0,0,1-4.56-3.81,9.87,9.87,0,0,1-1.57-5.51,9.2,9.2,0,0,1,3.7-7.74q3.7-2.8,11.45-2.81H747a6.52,6.52,0,0,0-2-5.15q-2-1.81-6.1-1.81a17.79,17.79,0,0,0-5.54.89,14.77,14.77,0,0,0-4.63,2.39l-3.67-7.15A22.15,22.15,0,0,1,732,89.57a30.7,30.7,0,0,1,8.29-1.12Q748.47,88.45,752.86,92.35Zm-8.73,24.33a6.61,6.61,0,0,0,2.89-3.57V109.5h-7c-4.2,0-6.29,1.38-6.29,4.13a3.66,3.66,0,0,0,1.54,3.12,6.88,6.88,0,0,0,4.23,1.15A8.86,8.86,0,0,0,744.13,116.68Z"/><path class="cls-4" d="M778.6,89.76a18.43,18.43,0,0,1,7.18-1.31v9.44c-1.14-.08-1.9-.13-2.3-.13a9.36,9.36,0,0,0-6.88,2.46q-2.51,2.46-2.5,7.38v16.66H763.87V89h9.78v4.66A11.41,11.41,0,0,1,778.6,89.76Z"/><path class="cls-4" d="M804.41,110.42l-4.92,4.85v9H789.26V75.6h10.23v27.54l15-14.17h12.2l-14.69,15,16,20.33H815.56Z"/></g></g></svg>